<svg width="89" height="89" viewBox="0 0 89 89" fill="none" xmlns="http://www.w3.org/2000/svg">
<path d="M49.1547 14.4448C49.1547 14.694 49.1547 14.912 49.1547 15.1301C49.1547 17.8757 49.1458 20.6214 49.1547 23.3626C49.1725 26.8113 51.3486 29.4591 54.6549 30.0509C55.1355 30.1355 55.6339 30.1355 56.1234 30.1399C58.7667 30.1488 61.4056 30.1399 64.0489 30.1399C64.2936 30.1399 64.5339 30.1399 64.8276 30.1399V53.1464C63.1767 50.0537 60.8404 47.9132 57.6898 46.7295C54.5303 45.5458 51.3575 45.5859 48.2158 46.823C42.8135 48.9545 39.5383 54.2634 40.0367 60.262C40.4906 65.7043 44.6113 71.0488 51.5399 72.1212C51.3174 72.1212 51.0949 72.1212 50.8724 72.1212C42.9648 72.1212 35.0616 72.1212 27.1539 72.1212C23.6785 72.1212 21.0352 69.9763 20.4211 66.6744C20.3365 66.2161 20.3276 65.7355 20.3276 65.2682C20.3232 50.601 20.3232 35.9338 20.3276 21.2711C20.3276 17.8624 22.3257 15.2814 25.503 14.5738C26.0192 14.4581 26.5576 14.4136 27.0872 14.4136C34.2339 14.4047 41.3806 14.4047 48.5317 14.4092C48.7097 14.4092 48.8922 14.427 49.1503 14.4448H49.1547ZM42.6444 40.6553C38.4658 40.6553 34.2917 40.6553 30.1132 40.6553C29.8462 40.6553 29.5792 40.6464 29.3166 40.6775C28.6892 40.7532 28.2397 41.2516 28.213 41.8746C28.173 42.729 28.7604 43.263 29.775 43.263C38.3323 43.263 46.8941 43.263 55.4515 43.263C55.5939 43.263 55.7407 43.2674 55.8787 43.2496C56.5773 43.1517 57.0446 42.5821 57.0134 41.879C56.9778 41.1003 56.4349 40.6553 55.4826 40.6553C51.2017 40.6508 46.9253 40.6553 42.6444 40.6553ZM44.5801 36.7215C48.1223 36.7215 51.6645 36.7215 55.2067 36.7215C55.3892 36.7215 55.5761 36.7304 55.7585 36.7126C56.5284 36.6325 57.0223 36.1074 57.0134 35.3865C57.0045 34.6656 56.5061 34.1627 55.7274 34.0871C55.625 34.0782 55.5227 34.0826 55.4203 34.0826C48.1935 34.0826 40.9623 34.0826 33.7355 34.0826C33.5308 34.0826 33.3261 34.1004 33.1258 34.1449C32.5206 34.2918 32.1468 34.7724 32.1424 35.3865C32.1379 36.0006 32.4984 36.499 33.0991 36.6458C33.3528 36.7081 33.6242 36.717 33.8912 36.7215C37.4557 36.7259 41.0157 36.7215 44.5801 36.7215ZM36.7615 26.2106C36.2275 26.2106 35.6979 26.2106 35.1639 26.2106C33.3439 26.2106 31.5194 26.2017 29.6993 26.2106C28.6936 26.2195 28.1018 26.8514 28.2264 27.7414C28.3243 28.4489 28.8894 28.8494 29.8195 28.8494C34.4252 28.8494 39.031 28.8494 43.6367 28.8494C43.877 28.8494 44.1351 28.8272 44.3621 28.7515C45.1453 28.4934 45.4746 27.5278 45.0296 26.8336C44.7047 26.3307 44.2063 26.2061 43.6456 26.2106C41.3539 26.215 39.0577 26.2106 36.7659 26.2106H36.7615ZM33.4462 49.8134C34.6922 49.8134 35.9427 49.8223 37.1887 49.8134C38.092 49.8045 38.6616 49.3016 38.675 48.5318C38.6839 47.7441 38.0831 47.2057 37.1664 47.2057C34.6922 47.2012 32.218 47.2057 29.7438 47.2057C28.7915 47.2057 28.2175 47.6952 28.2086 48.4962C28.1997 49.315 28.747 49.8089 29.7038 49.8134C30.9498 49.8223 32.2002 49.8134 33.4462 49.8134ZM32.8366 60.3243C31.773 60.3243 30.7095 60.3154 29.6459 60.3243C28.7426 60.3332 28.1997 60.8449 28.2086 61.6415C28.2175 62.4202 28.7871 62.9275 29.6815 62.932C31.7463 62.9409 33.8156 62.9409 35.8804 62.932C36.7748 62.932 37.34 62.4158 37.3489 61.637C37.3578 60.8405 36.8149 60.3376 35.9071 60.3287C34.8836 60.3154 33.8601 60.3287 32.8366 60.3287V60.3243ZM32.129 56.3905C32.9478 56.3905 33.7666 56.4038 34.5854 56.3905C35.471 56.3727 36.0584 55.8253 36.0539 55.0644C36.0495 54.3034 35.4621 53.765 34.5721 53.7561C32.9345 53.7427 31.2924 53.7383 29.6548 53.7561C28.7559 53.765 28.2041 54.2945 28.2041 55.0777C28.2041 55.8609 28.7648 56.3727 29.6682 56.3905C30.487 56.4083 31.3058 56.3905 32.1246 56.3905H32.129Z" fill="#F59C21"/>
<path d="M62.1042 64.3648C63.9955 66.2427 65.8778 68.1206 67.7691 69.994C68.5122 70.7283 68.8326 71.596 68.579 72.6195C68.0806 74.5998 65.6865 75.2584 64.2002 73.8121C62.438 72.0989 60.698 70.3634 58.9892 68.5967C58.562 68.1562 58.2728 68.1117 57.7076 68.3742C53.6759 70.2432 49.8044 69.8828 46.3779 67.057C42.9514 64.2313 41.7722 60.4666 42.9514 56.1812C44.1307 51.8914 47.0944 49.2926 51.4732 48.6073C55.625 47.9576 59.1049 49.4306 61.5569 52.8482C64.0088 56.2613 64.2091 59.9682 62.3979 63.7685C62.3089 63.9509 62.2199 64.1334 62.1042 64.3648ZM53.044 65.5396C56.6752 65.5529 59.6122 62.6426 59.6345 59.0159C59.6567 55.4114 56.7019 52.4566 53.0752 52.4566C49.4707 52.4566 46.5426 55.358 46.5203 58.9536C46.4981 62.5803 49.4173 65.5262 53.0396 65.544L53.044 65.5396Z" fill="#F59C21"/>
<path d="M51.7935 14.8896C55.9943 19.0949 60.2174 23.3179 64.3959 27.5009C64.3826 27.5009 64.2135 27.5276 64.0444 27.5276C61.321 27.5276 58.602 27.5321 55.8786 27.5276C53.4489 27.5232 51.7935 25.8811 51.7757 23.447C51.7579 20.7058 51.7713 17.9601 51.7757 15.2189C51.7757 15.0765 51.7935 14.9341 51.7935 14.8896Z" fill="#F59C21"/>
</svg>
