<svg width="89" height="89" viewBox="0 0 89 89" fill="none" xmlns="http://www.w3.org/2000/svg">
<path d="M49.5418 13.0339C50.6721 13.4567 51.6244 14.1153 51.7802 15.3835C51.9092 16.4293 51.9226 17.5195 51.7802 18.5564C51.5799 19.9537 50.374 20.8882 48.9544 20.8926C45.0028 20.9104 41.0512 20.9104 37.0996 20.8926C35.4531 20.8837 34.2116 19.6021 34.176 17.9512C34.1626 17.3371 34.1715 16.723 34.176 16.1089C34.1893 14.6537 34.9191 13.6436 36.3075 13.1496C36.3787 13.1229 36.441 13.074 36.5122 13.0339C40.8554 13.0339 45.1986 13.0339 49.5418 13.0339ZM43.027 15.0008C41.1224 15.0008 39.2178 14.9964 37.3132 15.0008C36.5122 15.0008 36.1562 15.3657 36.1473 16.1667C36.1384 16.7408 36.134 17.3148 36.1473 17.8889C36.1696 18.543 36.5345 18.9257 37.1886 18.9302C41.0824 18.9391 44.9717 18.9391 48.8654 18.9302C49.5151 18.9302 49.8845 18.543 49.9067 17.8889C49.9245 17.3371 49.9156 16.7808 49.9067 16.229C49.9023 15.3479 49.5596 15.0053 48.6785 15.0008C46.7917 14.9964 44.9094 15.0008 43.0226 15.0008H43.027Z" fill="#E81E3E"/>
<path d="M53.845 15.9978C56.1323 15.9978 58.3439 15.9444 60.5511 16.0156C61.944 16.0646 63.1277 17.275 63.1633 18.6678C63.2256 21.0219 63.1811 23.3759 63.1811 25.8145C62.2065 25.8145 61.2542 25.8056 60.2975 25.8145C58.2861 25.8368 56.7197 27.1451 56.3681 29.1075C56.3058 29.4457 56.3103 29.8017 56.3103 30.1488C56.3103 33.117 56.3103 36.0896 56.3103 38.9109C55.7451 38.8041 55.1844 38.6127 54.6237 38.6127C49.7688 38.5905 44.9138 38.5994 40.0544 38.5994C39.8497 38.5994 39.6406 38.5816 39.4403 38.6172C38.9419 38.7151 38.6304 39.031 38.6171 39.5428C38.5993 40.0857 38.9063 40.4239 39.4314 40.5396C39.6094 40.5796 39.7963 40.5618 39.9832 40.5618C44.9628 40.5618 49.9423 40.5707 54.9219 40.5485C55.3713 40.5485 55.8163 40.3482 56.2702 40.237V51.4554C55.7896 50.7301 55.0999 50.8903 54.4546 50.8903C49.6397 50.8858 44.8248 50.8903 40.0099 50.8903C39.8052 50.8903 39.5916 50.868 39.3958 50.917C38.9286 51.0282 38.6393 51.3353 38.6171 51.8203C38.5948 52.3365 38.8707 52.6703 39.3602 52.8171C39.5115 52.8616 39.6851 52.8527 39.8497 52.8527C44.9094 52.8527 49.9735 52.8616 55.0331 52.8394C55.4425 52.8394 55.8519 52.6213 56.288 52.4967C56.288 52.519 56.3103 52.6881 56.3103 52.8572C56.3103 55.2335 56.2836 57.6098 56.3325 59.9861C56.3459 60.5779 56.4927 61.2098 56.7464 61.7483C57.5518 63.4704 58.4285 65.1614 59.2829 66.8613C60.2396 68.7748 61.0629 69.2243 63.1633 68.9706C63.1633 70.4836 63.2701 72.0011 63.1321 73.4963C62.9942 75.0004 61.6948 75.9571 60.0928 75.9571C52.5322 75.9571 44.9717 75.9571 37.4111 75.9571C33.642 75.9571 29.8728 75.9571 26.0992 75.9571C24.0878 75.9571 22.8774 74.7512 22.8774 72.7531C22.8774 54.9086 22.8774 37.0686 22.8774 19.2241C22.8774 17.1726 24.07 15.9756 26.1126 15.9756C28.1195 15.9756 30.1265 15.9756 32.218 15.9756C32.218 16.5674 32.218 17.1326 32.218 17.6977C32.2269 20.7638 34.3273 22.8553 37.4022 22.8597C41.1714 22.8597 44.9405 22.8597 48.7141 22.8597C51.7446 22.8597 53.845 20.746 53.8539 17.7155C53.8539 17.1637 53.8539 16.6119 53.8539 15.9889L53.845 15.9978ZM26.8023 28.2442C26.789 30.9632 28.9917 33.1837 31.7018 33.1926C34.4163 33.1971 36.6324 30.9854 36.6324 28.2754C36.6324 25.5876 34.4474 23.3804 31.7641 23.3626C29.0451 23.3448 26.8157 25.5386 26.8023 28.2442ZM36.6324 40.1035C36.6413 37.3845 34.4385 35.164 31.7285 35.164C29.0095 35.164 26.8023 37.3667 26.8023 40.0812C26.8023 42.769 28.9873 44.9718 31.6751 44.994C34.3807 45.0163 36.6279 42.8046 36.6324 40.1035ZM36.6324 51.847C36.6235 49.1637 34.4207 46.9698 31.7329 46.9654C29.014 46.9654 26.8068 49.1592 26.8023 51.8782C26.8023 54.5882 29.0184 56.7999 31.7329 56.791C34.4474 56.7821 36.6413 54.566 36.6324 51.8426V51.847ZM26.8023 63.6707C26.8023 66.3896 29.014 68.6013 31.724 68.5968C34.4385 68.5924 36.6413 66.3763 36.6324 63.6573C36.6279 60.9473 34.4029 58.7534 31.6795 58.7668C29.0006 58.7801 26.8023 60.9918 26.8023 63.6707ZM47.4548 27.2964C46.4713 27.2964 45.4879 27.2964 44.5044 27.2964C42.9069 27.2964 41.3093 27.2964 39.7118 27.2964C39.2089 27.2964 38.7639 27.4833 38.6883 27.9861C38.6393 28.3154 38.7773 28.7604 38.9953 29.0096C39.1644 29.2054 39.5872 29.2544 39.8987 29.2544C44.2419 29.2677 48.5851 29.2633 52.9283 29.2633C53.707 29.2633 54.4858 29.2766 55.2645 29.2588C55.932 29.241 56.377 28.7471 56.3014 28.1597C56.2302 27.6212 55.8163 27.3008 55.1444 27.3008C52.5812 27.2964 50.0224 27.3008 47.4592 27.3008L47.4548 27.2964ZM47.5171 63.1901C46.3067 63.1901 45.1007 63.1901 43.8903 63.1901C42.4752 63.1901 41.0646 63.1812 39.6495 63.1945C39.022 63.2034 38.6082 63.6128 38.6082 64.1691C38.6082 64.7298 39.0176 65.1214 39.6495 65.1525C39.8542 65.1614 40.0589 65.1525 40.2636 65.1525C44.6068 65.1525 48.95 65.1525 53.2932 65.1525C53.9696 65.1525 54.646 65.1614 55.3224 65.1481C55.7763 65.1392 56.1768 64.9122 56.2257 64.4672C56.2613 64.1335 56.1367 63.6929 55.9187 63.4437C55.7496 63.2479 55.3268 63.199 55.0153 63.199C52.5144 63.1812 50.018 63.1901 47.5171 63.1901Z" fill="#E81E3E"/>
<path d="M58.2683 44.865C58.2683 39.9522 58.2683 35.035 58.2683 30.1222C58.2683 28.5202 58.9981 27.7904 60.5867 27.7859C61.7348 27.7859 62.8785 27.7815 64.0266 27.7859C65.3171 27.7948 66.1359 28.6092 66.1359 29.9041C66.1359 39.9166 66.1359 49.9291 66.127 59.9416C66.127 60.2576 66.0513 60.6002 65.9134 60.8806C65.0189 62.7184 64.0933 64.5429 63.1811 66.3763C62.9764 66.7902 62.7049 67.1017 62.2154 67.1106C61.6948 67.115 61.4189 66.7857 61.2053 66.3496C60.3197 64.5518 59.403 62.7718 58.5308 60.9651C58.3706 60.6314 58.2772 60.2264 58.2772 59.8526C58.2594 54.8553 58.2683 49.8579 58.2683 44.865ZM60.2752 29.7617V32.6542H64.12V29.7617H60.2752ZM62.2021 63.9244C62.6827 62.9632 63.101 62.1221 63.5282 61.2633H60.8671C61.3121 62.1533 61.7304 62.981 62.2021 63.9244Z" fill="#E81E3E"/>
<path d="M34.6032 28.5289C34.4786 29.993 33.3706 31.0921 31.9688 31.2167C30.576 31.3369 29.2721 30.438 28.885 29.0985C28.4889 27.7146 29.1208 26.2772 30.4069 25.6364C31.6885 25.0001 33.1748 25.3561 34.0336 26.5264C33.3572 26.9848 32.6853 27.4431 31.9733 27.9282C31.7864 27.7235 31.6173 27.5232 31.4304 27.3452C31.021 26.9581 30.5003 26.9403 30.0998 27.2785C29.6993 27.6167 29.6148 28.1506 29.9485 28.6001C30.2912 29.0584 30.6694 29.4946 31.061 29.9084C31.4793 30.349 31.9555 30.3267 32.445 29.993C33.1481 29.5079 33.8556 29.0318 34.5988 28.5289H34.6032Z" fill="#E81E3E"/>
<path d="M34.0469 38.319C33.4373 38.7328 32.8677 39.1244 32.2936 39.516C32.1957 39.5828 32.0934 39.6451 31.9643 39.7252C31.7863 39.5294 31.635 39.3425 31.4615 39.1734C31.0387 38.764 30.4869 38.7373 30.082 39.1022C29.6948 39.4493 29.6281 39.9788 29.9707 40.4283C30.2911 40.851 30.6427 41.256 31.0031 41.6431C31.4437 42.1193 31.8664 42.1682 32.4227 41.8078C33.1391 41.3405 33.8422 40.851 34.572 40.3571C34.5898 41.6164 33.5485 42.7467 32.1913 42.9915C30.8296 43.2362 29.3967 42.3863 28.9383 41.0513C28.4711 39.7029 29.0362 38.2077 30.2778 37.5135C31.5638 36.7926 33.0724 37.0997 34.0514 38.3234L34.0469 38.319Z" fill="#E81E3E"/>
<path d="M34.0381 50.1291C33.3661 50.5875 32.6897 51.0458 31.9777 51.5353C31.8042 51.3484 31.6484 51.166 31.4793 50.9969C31.0521 50.5741 30.5226 50.5341 30.1043 50.8856C29.686 51.2372 29.6237 51.7845 29.9841 52.2562C30.2956 52.6612 30.6294 53.0483 30.9765 53.4266C31.4393 53.9294 31.8576 53.9784 32.4405 53.5957C33.1525 53.1284 33.8556 52.6389 34.5988 52.1361C34.4831 53.5912 33.3706 54.6993 31.9688 54.8194C30.576 54.9396 29.2721 54.0451 28.885 52.7057C28.4889 51.3262 29.1208 49.8844 30.4069 49.2436C31.6885 48.6072 33.1748 48.9588 34.0336 50.1336L34.0381 50.1291Z" fill="#E81E3E"/>
<path d="M34.047 61.9261C33.3394 62.4067 32.663 62.8651 31.9688 63.3368C31.7641 63.1143 31.5995 62.9096 31.4081 62.736C30.9987 62.3622 30.4514 62.3489 30.0776 62.7138C29.6904 63.092 29.6103 63.5459 29.9352 63.9865C30.2867 64.4626 30.6739 64.9165 31.0877 65.3393C31.4882 65.7531 31.951 65.7353 32.4227 65.4149C33.1303 64.9299 33.8423 64.4537 34.5721 63.9598C34.5721 65.2325 33.5397 66.3539 32.1824 66.5986C30.8207 66.8434 29.3878 65.9845 28.9295 64.654C28.4622 63.3056 29.0318 61.806 30.2734 61.1162C31.5639 60.3953 33.068 60.7068 34.047 61.9306V61.9261Z" fill="#E81E3E"/>
</svg>
