<svg width="89" height="89" viewBox="0 0 89 89" fill="none" xmlns="http://www.w3.org/2000/svg">
<path d="M49.5285 13.0385C49.7465 13.2699 49.9512 13.5235 50.1871 13.7327C55.6784 18.6499 61.1742 23.5627 66.6699 28.48C67.3419 29.0807 67.2796 30.0998 66.572 30.616C66.1804 30.9052 65.8066 31.2345 65.4817 31.5994C63.1232 34.2694 60.7737 36.9528 58.4419 39.645C58.1571 39.9743 57.8723 40.0856 57.4495 40.0856C49.1948 40.0722 40.94 40.0767 32.6897 40.0767C32.485 40.0767 32.2758 40.0544 32.0756 40.09C31.546 40.1879 31.2256 40.5128 31.2256 41.0557C31.2256 41.5986 31.5416 41.9323 32.0711 42.0213C32.3114 42.0614 32.5606 42.0391 32.8054 42.0391C40.3615 42.0391 47.922 42.0391 55.4781 42.0391C55.7006 42.0391 55.9276 42.0391 56.3236 42.0391C55.5582 42.9024 54.8907 43.6812 54.1832 44.4243C54.0764 44.5356 53.7961 44.4911 53.5958 44.4911C46.6316 44.4911 39.6673 44.4911 32.7075 44.4911C32.4805 44.4911 32.2491 44.4688 32.0355 44.5133C31.5371 44.6157 31.2345 44.9361 31.2256 45.4523C31.2167 45.9952 31.5282 46.3334 32.0533 46.4357C32.2714 46.4802 32.5028 46.458 32.7253 46.458C39.0131 46.458 45.301 46.458 51.5888 46.458C51.8158 46.458 52.0383 46.458 52.4254 46.458C51.9893 46.9653 51.5799 47.3524 51.2773 47.8108C50.6899 48.6963 49.9334 48.9544 48.8654 48.9455C43.4587 48.8832 38.0519 48.9188 32.6452 48.9188C32.4405 48.9188 32.2314 48.8966 32.0311 48.9411C31.5327 49.0479 31.2301 49.3638 31.2212 49.88C31.2123 50.4229 31.5238 50.7611 32.0489 50.8635C32.2669 50.908 32.4983 50.8857 32.7208 50.8857C37.7182 50.8857 42.7155 50.8857 47.7129 50.8857H48.545C47.9977 51.5176 47.5037 52.0383 47.0721 52.6079C46.6582 53.1552 46.1954 53.3733 45.4745 53.3644C41.1936 53.3199 36.9127 53.3421 32.6318 53.3421C32.4271 53.3421 32.218 53.3288 32.0177 53.3644C31.5238 53.4534 31.1678 53.8895 31.2078 54.3701C31.2523 54.8818 31.5416 55.1978 32.0444 55.2868C32.2447 55.3224 32.4538 55.3046 32.6585 55.3046C36.3876 55.3046 40.1123 55.3046 43.8414 55.3046C44.0594 55.3046 44.2775 55.3046 44.6513 55.3046C43.9081 56.1545 43.2718 56.911 42.5909 57.6319C42.4708 57.761 42.1771 57.761 41.9635 57.761C38.9508 57.7699 35.9426 57.7654 32.93 57.761C32.7475 57.761 32.5606 57.761 32.3782 57.761C31.6439 57.7743 31.2123 58.1348 31.2034 58.7311C31.1945 59.3318 31.635 59.719 32.3559 59.7234C33.2993 59.7323 34.2383 59.7234 35.1817 59.7234C37.1486 59.7234 39.111 59.7234 41.1758 59.7234C40.9533 60.5689 40.7486 61.361 40.535 62.1798C38.1587 62.1798 35.8269 62.1798 33.4951 62.1798C33.0857 62.1798 32.6763 62.1709 32.2669 62.1843C31.635 62.2065 31.2167 62.5937 31.2034 63.1455C31.19 63.7284 31.6172 64.1423 32.2803 64.1423C34.5943 64.1512 36.9083 64.1423 39.2223 64.1423C39.4448 64.1423 39.6717 64.1423 39.9921 64.1423C39.783 64.97 39.5916 65.7487 39.378 66.5987C39.1555 66.5987 38.9375 66.5987 38.715 66.5987C36.6279 66.5987 34.5364 66.5987 32.4494 66.5987C31.6662 66.5987 31.2167 66.9547 31.2034 67.5599C31.1856 68.1918 31.6484 68.5611 32.4627 68.5611C34.3451 68.5611 36.2319 68.5611 38.1142 68.5611C38.3367 68.5611 38.5592 68.5611 38.8218 68.5611C38.7639 68.8548 38.7194 69.0907 38.6616 69.3265C38.3946 70.4657 38.6972 71.4492 39.556 72.219C40.4371 73.0111 41.4784 73.2069 42.5865 72.7708C44.7358 71.9209 46.8763 71.0487 49.0078 70.1587C50.1737 69.6736 51.3174 69.1218 52.4744 68.619C52.6346 68.5478 52.8304 68.5567 53.0128 68.5567C54.8373 68.5522 56.6574 68.5567 58.4819 68.5522C59.2517 68.5522 59.7057 68.1784 59.7012 67.5688C59.7012 66.9547 59.2473 66.5942 58.473 66.5898C57.1291 66.5898 55.7852 66.5898 54.3033 66.5898C55.0509 65.7398 55.7006 64.9878 56.3726 64.258C56.4616 64.1601 56.6663 64.1423 56.8176 64.1378C57.3916 64.1245 57.9657 64.1378 58.5398 64.1289C59.2607 64.12 59.7056 63.7418 59.7056 63.1499C59.7056 62.5759 59.3007 62.2154 58.6065 62.1665C58.513 62.162 58.4196 62.1487 58.2194 62.1309C61.1742 58.7578 64.0667 55.4559 67.0437 52.0605C67.0615 52.3498 67.0837 52.5233 67.0837 52.6924C67.0837 59.3674 67.0837 66.0469 67.0837 72.7219C67.0837 74.7199 65.8689 75.9259 63.8619 75.9259C51.9226 75.9259 39.9832 75.9259 28.0394 75.9259C26.0013 75.9259 24.8087 74.7199 24.8087 72.6685C24.8087 54.0319 24.8221 35.3953 24.7865 16.7587C24.7865 14.9208 25.3561 13.6303 27.145 13.0073C34.5987 13.0073 42.0569 13.0073 49.5107 13.0073L49.5285 13.0385ZM62.9408 27.7813C58.8691 24.2881 54.9219 20.9016 50.8946 17.444C50.8946 20.599 50.8768 23.6028 50.9035 26.611C50.9124 27.4075 51.3352 27.7724 52.1851 27.7769C55.7051 27.7902 59.2295 27.7813 62.9408 27.7813ZM45.5368 35.6534C41.2559 35.6534 36.975 35.6534 32.6941 35.6534C32.4672 35.6534 32.2358 35.6311 32.0222 35.6801C31.5282 35.7913 31.2301 36.1206 31.2301 36.6368C31.2301 37.153 31.5282 37.4779 32.0177 37.5936C32.2135 37.6381 32.4271 37.6203 32.6274 37.6203C41.1669 37.6203 49.7065 37.6203 58.2505 37.6203C58.4774 37.6203 58.7089 37.6425 58.9225 37.5936C59.4164 37.4779 59.7146 37.153 59.7146 36.6368C59.7146 36.1206 59.4164 35.7958 58.9225 35.6801C58.7267 35.6356 58.513 35.6534 58.3128 35.6534C54.0541 35.6534 49.791 35.6534 45.5324 35.6534H45.5368ZM34.1626 29.8773C34.1582 29.3477 33.6998 28.8983 33.1747 28.9072C32.6452 28.9116 32.2002 29.3655 32.2046 29.8995C32.2091 30.438 32.6541 30.8696 33.1925 30.8652C33.731 30.8607 34.1671 30.4157 34.1626 29.8817V29.8773ZM37.0952 28.9072C36.5656 28.9205 36.1251 29.3789 36.1384 29.9084C36.1518 30.4469 36.5968 30.8741 37.1397 30.8607C37.6781 30.8474 38.1098 30.4024 38.0964 29.8639C38.0831 29.3299 37.6247 28.8938 37.0952 28.9027V28.9072Z" fill="#11A4FF"/>
<path d="M13.0295 19.3086C13.4923 17.7422 14.5959 17.0525 16.1712 16.8166C18.2316 16.5096 20.2741 16.0646 22.3256 15.6774C22.4813 15.6463 22.6415 15.6329 22.8329 15.6062V17.5776C21.351 17.8668 19.8692 18.1516 18.3918 18.4409C17.5908 18.5966 16.7853 18.7479 15.9843 18.9081C15.1477 19.0772 14.8807 19.4822 15.0409 20.3099C15.7752 24.1235 16.5139 27.9416 17.2526 31.7553C19.1082 41.3539 20.9683 50.9525 22.824 60.5467C22.8373 60.6268 22.8596 60.707 22.8596 60.7871C22.8596 64.0845 22.8596 67.3775 22.775 70.6838C22.4413 68.9572 22.1031 67.2262 21.7693 65.4996C20.065 56.6619 18.3651 47.8287 16.6652 38.991C15.4993 32.9479 14.3334 26.9003 13.163 20.8572C13.1408 20.746 13.0785 20.6392 13.034 20.5324C13.034 20.123 13.034 19.7136 13.034 19.3042L13.0295 19.3086Z" fill="#11A4FF"/>
<path d="M69.4245 31.5461C70.0208 31.8265 70.6972 32.0045 71.2 32.4005C72.495 33.4329 73.7365 34.5365 74.9603 35.6535C76.2552 36.8327 76.3042 38.546 75.1027 39.9299C71.2267 44.371 67.3374 48.8032 63.4481 53.2399C59.5188 57.721 55.5983 62.2022 51.6556 66.67C51.3842 66.977 51.0104 67.244 50.6277 67.4042C47.8375 68.5657 45.0296 69.696 42.2305 70.8441C41.7722 71.031 41.3361 71.1645 40.9178 70.7862C40.4995 70.4124 40.5662 69.9585 40.6908 69.4824C41.4651 66.5142 42.2261 63.5461 43.0137 60.5824C43.0938 60.2798 43.254 59.9683 43.4587 59.7324C51.313 50.7434 59.1761 41.7633 67.0348 32.7788C67.6489 32.0757 68.4099 31.6974 69.3488 31.7019C69.3755 31.6485 69.3978 31.5995 69.4245 31.5461ZM65.8244 37.1754C59.0426 44.9139 52.3053 52.6035 45.5458 60.3154C47.3258 61.8017 49.0524 63.239 50.7923 64.6897C57.5741 56.9512 64.3159 49.2616 71.0799 41.5453C69.3132 40.0723 67.5999 38.6483 65.8288 37.1709L65.8244 37.1754ZM67.106 35.698C68.8771 37.1709 70.6126 38.6083 72.3748 40.0723C72.8599 39.5072 73.3138 39.0132 73.7321 38.4837C74.1103 38.0031 74.0881 37.5225 73.6297 37.1175C72.4193 36.0451 71.1956 34.9904 69.9629 33.9491C69.4957 33.5575 69.0017 33.5842 68.5879 34.0159C68.0806 34.5454 67.6133 35.115 67.1015 35.6935L67.106 35.698ZM43.0137 68.4144C45.1141 67.5511 47.081 66.7412 49.1547 65.8912C47.615 64.6007 46.1688 63.3903 44.6602 62.1221C44.1084 64.2314 43.5833 66.2428 43.0182 68.4144H43.0137Z" fill="#11A4FF"/>
</svg>
