<svg width="89" height="89" viewBox="0 0 89 89" fill="none" xmlns="http://www.w3.org/2000/svg">
<path d="M13.4168 34.8968C13.7728 33.8244 14.5516 33.2904 15.6107 32.97C24.5107 30.2599 33.4018 27.5321 42.2884 24.7864C44.0328 24.248 45.7327 24.248 47.4727 24.7864C56.3415 27.5232 65.2148 30.2377 74.0881 32.9611C74.2839 33.0189 74.4752 33.0901 74.6666 33.1613C75.7168 33.5485 76.3265 34.3495 76.3309 35.3552C76.3354 36.3787 75.7168 37.2375 74.6355 37.5891C72.8466 38.1676 71.0443 38.706 69.2465 39.2578C62.0153 41.4784 54.784 43.6945 47.5572 45.9284C45.7372 46.4935 43.9527 46.4757 42.1282 45.9106C36.0584 44.0238 29.9753 42.1726 23.901 40.2902C23.4738 40.1567 23.1712 40.2012 22.8553 40.5083C22.0454 41.287 21.4936 42.1993 21.3779 43.3251C21.3556 43.5209 21.4624 43.8013 21.6093 43.9303C23.2068 45.3232 23.2736 47.2011 21.7784 48.6918C21.636 48.8342 21.5648 49.1591 21.6093 49.3682C22.3658 52.8659 23.1445 56.3592 23.9233 59.8524C24.2437 61.2809 23.6207 62.0952 22.1744 62.0997C20.5146 62.1041 18.8547 62.1086 17.1993 62.0997C15.8198 62.0952 15.179 61.2853 15.4772 59.9459C16.2515 56.4526 17.0258 52.9594 17.809 49.4661C17.8891 49.1012 17.8446 48.8476 17.5464 48.5583C16.1313 47.21 16.2693 45.1852 17.7823 43.9392C17.9959 43.7612 18.1605 43.4275 18.2006 43.1471C18.3875 41.8477 18.8236 40.6507 19.5667 39.5693C19.6691 39.4225 19.767 39.2756 19.9049 39.0709C18.472 38.6259 17.1014 38.1542 15.7041 37.7849C14.6183 37.4956 13.8129 36.9572 13.4124 35.8847V34.9013L13.4168 34.8968Z" fill="#E81E3E"/>
<path d="M27.4387 44.6736C29.192 45.212 30.8875 45.7282 32.5829 46.2489C35.5333 47.1522 38.4881 48.0467 41.434 48.9678C43.7524 49.6932 46.0575 49.6798 48.376 48.9589C52.8438 47.5705 57.3249 46.2088 61.8016 44.8338C61.9574 44.7848 62.1131 44.7448 62.349 44.678C62.4558 45.479 62.567 46.24 62.6605 47.0009C63.0076 49.8044 63.3369 52.6079 63.7062 55.407C63.813 56.2258 63.6306 56.9734 63.0432 57.4807C62.2333 58.1838 61.3655 58.8691 60.4177 59.3497C57.6765 60.7247 54.695 61.281 51.6868 61.6726C47.5483 62.2066 43.3964 62.2511 39.249 61.8061C35.6579 61.4189 32.1023 60.8271 28.8672 59.1049C28.0706 58.6822 27.3542 58.0636 26.6911 57.4451C26.1171 56.9066 25.9613 56.1679 26.0681 55.3536C26.5131 51.9226 26.927 48.4917 27.3497 45.0607C27.3631 44.9628 27.3987 44.8649 27.4476 44.6736H27.4387Z" fill="#E81E3E"/>
</svg>
