<svg width="89" height="89" viewBox="0 0 89 89" fill="none" xmlns="http://www.w3.org/2000/svg">
<path d="M34.6966 47.1834V49.1325H51.1483C50.9436 49.3595 50.8234 49.4796 50.7166 49.6131C49.9423 50.6144 49.1458 51.6023 48.416 52.6347C48.1846 52.9595 47.9888 53.093 47.5927 53.0886C43.5343 53.0752 39.4804 53.0797 35.422 53.0797H34.7055V55.0332H47.1299C46.8451 57.0001 46.5603 58.927 46.2711 60.9295C46.28 60.9295 46.142 60.9473 46.0041 60.9473C41.7232 60.9473 37.4423 60.9517 33.1569 60.9384C32.7965 60.9384 32.4138 60.8716 32.0845 60.7337C31.1989 60.3599 30.7139 59.719 30.7139 58.6955C30.7272 48.9055 30.7228 39.1111 30.7228 29.3211C30.7228 24.9601 30.7228 20.5947 30.7228 16.2337C30.7228 14.6272 31.5994 13.755 33.237 13.755C37.7849 13.755 42.3328 13.755 46.8807 13.755C49.4395 13.755 52.0027 13.755 54.5614 13.755C54.7839 13.755 55.0064 13.755 55.309 13.755C55.309 14.0087 55.309 14.2267 55.309 14.4448C55.309 17.048 55.3669 19.6513 55.2912 22.2501C55.2289 24.395 57.0579 25.5653 58.5709 25.5609C61.5435 25.552 64.5116 25.5609 67.4842 25.5609C67.6667 25.5609 67.8447 25.5609 68.0627 25.5609V46.7918C67.146 46.4625 66.2471 46.0709 65.3126 45.8128C61.4545 44.7493 57.7387 45.0964 54.1876 46.9921C53.934 47.1256 53.6091 47.1834 53.3154 47.1834C47.4548 47.1923 41.5986 47.1923 35.7379 47.1923C35.4131 47.1923 35.0838 47.1923 34.6877 47.1923L34.6966 47.1834ZM64.1467 29.5258H34.6966V31.4171H64.1467V29.5258ZM64.1334 37.34V35.4265H34.7189V37.34H64.1334ZM64.1245 43.2274V41.3139H34.7055V43.2274H64.1245ZM53.3243 17.7244H34.7144V19.6201H53.3243V17.7244ZM34.7144 23.6073V25.5208H53.3154V23.6073H34.7144Z" fill="#E81E3E"/>
<path d="M48.4427 59.9282C48.4561 52.866 54.1788 47.1745 61.2498 47.1834C68.3164 47.1923 74.0213 52.9105 74.0124 59.9727C74.0035 67.0704 68.2764 72.7709 61.1742 72.7486C54.1165 72.7264 48.4294 66.9992 48.4427 59.9282ZM59.1539 66.8924C62.8118 63.2345 66.4875 59.5633 70.1231 55.9276C69.7271 55.5271 69.2865 55.091 68.7748 54.5748C65.5797 57.7699 62.3579 60.9917 59.0515 64.2981C57.2181 62.4558 55.3803 60.6001 53.5914 58.7979C53.1464 59.234 52.7103 59.6612 52.3142 60.0483C54.5926 62.3267 56.8888 64.6229 59.1539 66.8924Z" fill="#E81E3E"/>
<path d="M28.707 59.0115C28.1285 57.632 27.6078 56.3949 27.0916 55.1578C23.1623 45.7193 19.2374 36.2809 15.308 26.838C14.6272 25.1959 15.0054 24.2703 16.6519 23.5895C20.4878 22.0008 24.3237 20.4122 28.1596 18.828C28.3287 18.7568 28.4978 18.6989 28.7737 18.5966C28.7737 19.5622 28.7737 20.47 28.7737 21.3734C28.7737 23.0021 28.7737 22.9932 27.283 23.6117C24.7153 24.6753 22.1521 25.7433 19.5355 26.8335C19.7981 27.4209 20.0428 27.9727 20.3187 28.5957C23.1267 27.4209 25.9079 26.2595 28.7737 25.0624C28.7737 26.4508 28.7871 27.7547 28.7559 29.0541C28.7559 29.1965 28.5023 29.3923 28.3243 29.4635C26.3974 30.2645 24.4661 31.0432 22.5348 31.8353C22.3123 31.9288 22.0898 32.0311 21.8095 32.1557C22.0676 32.7387 22.3123 33.2905 22.5838 33.9046C24.6441 33.0591 26.6778 32.2269 28.7782 31.3636C28.7782 32.7342 28.7915 34.0247 28.7604 35.3063C28.7604 35.4576 28.5379 35.6668 28.3732 35.7424C26.967 36.3521 25.5519 36.9306 24.0701 37.5491C24.3237 38.1276 24.5685 38.6839 24.8444 39.3069C26.1527 38.8263 27.4387 38.3501 28.7826 37.8562C28.7826 39.2001 28.796 40.4683 28.7648 41.7366C28.7648 41.8968 28.5779 42.1282 28.4177 42.1994C27.7502 42.502 27.0605 42.7601 26.3351 43.0538C26.5932 43.6412 26.838 44.1974 27.105 44.8026C27.6612 44.589 28.1863 44.3888 28.7203 44.1841V59.0115H28.707Z" fill="#E81E3E"/>
<path d="M67.4264 23.585C65.593 23.585 63.9376 23.585 62.2866 23.585C61.0807 23.585 59.8703 23.5939 58.6643 23.585C57.9924 23.5806 57.6097 23.2869 57.6052 22.655C57.5785 20.0829 57.5963 17.5063 57.5963 14.7473C60.9027 17.7244 64.0978 20.5946 67.4308 23.5895L67.4264 23.585Z" fill="#E81E3E"/>
<path d="M44.7225 63.0297C43.5611 63.5103 42.3952 63.9953 41.2337 64.4759C38.9865 65.4015 36.7392 66.3316 34.4875 67.2528C33.2148 67.7734 32.1735 67.3328 31.644 66.069C31.2212 65.0544 30.8074 64.0309 30.3668 62.9585H44.6825C44.6958 62.9807 44.7092 63.0074 44.7225 63.0297Z" fill="#E81E3E"/>
</svg>
