<svg width="89" height="89" viewBox="0 0 89 89" fill="none" xmlns="http://www.w3.org/2000/svg">
<path d="M19.006 13.0341H69.9852C69.9852 30.4647 69.9852 47.8909 69.9941 65.3216C69.9941 65.7621 69.8828 66.0781 69.5624 66.394C66.5008 69.4245 63.457 72.4638 60.4177 75.5165C60.1062 75.8325 59.7991 75.966 59.3497 75.966C46.1332 75.9526 32.9167 75.9571 19.7046 75.9571H19.0104V13.0341H19.006ZM42.4085 38.27C45.9863 33.4952 49.533 28.7648 53.1152 23.99C52.2163 23.2602 51.3352 22.5437 50.4141 21.7917C47.575 25.5742 44.7804 29.3033 41.9546 33.0635C40.6686 31.8798 39.427 30.7317 38.1499 29.5569C37.3667 30.4736 36.628 31.3369 35.8715 32.2225C38.0653 34.2517 40.2147 36.2364 42.4085 38.2656V38.27ZM58.8335 57.3071H30.1621V59.2073H58.8335V57.3071ZM58.8201 47.9933V46.1065H30.1532V47.9933H58.8201ZM30.1488 53.5736H58.8112V51.6868H30.1488V53.5736ZM60.4088 65.9134V72.5083C62.6026 70.3189 64.8232 68.1028 67.017 65.9134H60.4088Z" fill="#11A4FF"/>
</svg>
