<svg width="26" height="26" viewBox="0 0 26 26" fill="none" xmlns="http://www.w3.org/2000/svg">
<path d="M23.5625 3.25C24.9082 3.25 26 4.3418 26 5.6875C26 6.4543 25.6395 7.17539 25.025 7.6375L13.975 15.925C13.3961 16.3566 12.6039 16.3566 12.025 15.925L0.975 7.6375C0.360548 7.17539 0 6.4543 0 5.6875C0 4.3418 1.0918 3.25 2.4375 3.25H23.5625ZM26 8.9375V19.5C26 21.2926 24.5426 22.75 22.75 22.75H3.25C1.45742 22.75 0 21.2926 0 19.5V8.9375L11.05 17.225C12.2078 18.0934 13.7922 18.0934 14.95 17.225L26 8.9375Z" fill="white"/>
</svg>
