<svg width="26" height="34" viewBox="0 0 26 34" fill="none" xmlns="http://www.w3.org/2000/svg">
<g clip-path="url(#clip0_135_1377)">
<path d="M11.3953 33.15C7.92188 28.8867 0 18.5539 0 12.75C0 5.71094 5.82292 0 13 0C20.1771 0 26 5.71094 26 12.75C26 18.5539 18.0781 28.8867 14.6047 33.15C13.7719 34.166 12.2281 34.166 11.3953 33.15ZM13 8.5C11.8507 8.5 10.7485 8.94777 9.93587 9.7448C9.12321 10.5418 8.66667 11.6228 8.66667 12.75C8.66667 13.8772 9.12321 14.9582 9.93587 15.7552C10.7485 16.5522 11.8507 17 13 17C14.1493 17 15.2515 16.5522 16.0641 15.7552C16.8768 14.9582 17.3333 13.8772 17.3333 12.75C17.3333 11.6228 16.8768 10.5418 16.0641 9.7448C15.2515 8.94777 14.1493 8.5 13 8.5Z" fill="white"/>
</g>
<defs>
<clipPath id="clip0_135_1377">
<rect width="26" height="34" fill="white" transform="matrix(-1 0 0 1 26 0)"/>
</clipPath>
</defs>
</svg>
