<svg width="26" height="27" viewBox="0 0 26 27" fill="none" xmlns="http://www.w3.org/2000/svg">
<g clip-path="url(#clip0_135_1375)">
<path d="M8.37383 1.29748C7.98281 0.316619 6.95195 -0.205452 5.9668 0.0740406L1.49805 1.33967C0.614453 1.59279 0 2.42599 0 3.37521C0 16.4217 10.1867 27.0002 22.75 27.0002C23.6641 27.0002 24.4664 26.3621 24.7102 25.4445L25.9289 20.8039C26.198 19.7809 25.6953 18.7104 24.7508 18.3043L19.8758 16.1949C19.048 15.8363 18.0883 16.0842 17.5246 16.8067L15.473 19.4065C11.898 17.6504 9.00352 14.6445 7.3125 10.932L9.81602 8.80685C10.5117 8.21623 10.7504 7.22482 10.4051 6.36525L8.37383 1.30275V1.29748Z" fill="white"/>
</g>
<defs>
<clipPath id="clip0_135_1375">
<rect width="26" height="27" fill="white"/>
</clipPath>
</defs>
</svg>
